Coordinates
version=1
nRows=12
nColumns=23
inDegrees=yes

Units are S.I. units (second, meters, Newtons, ...)
If the header above contains a line with 'inDegrees', this indicates whether rotational values are in degrees (yes) or radians (no).

endheader
time	pelvis_tilt	pelvis_list	pelvis_rotation	pelvis_tx	pelvis_ty	pelvis_tz	hip_flexion_r	hip_adduction_r	hip_rotation_r	knee_angle_r	knee_angle_r_beta	ankle_angle_r	subtalar_angle_r	mtp_angle_r	hip_flexion_l	hip_adduction_l	hip_rotation_l	knee_angle_l	knee_angle_l_beta	ankle_angle_l	subtalar_angle_l	mtp_angle_l
     15.00000000	     -7.68044418	     -8.18531030	      2.62644031	      2.40583917	      1.03719065	      0.97083296	     47.99626304	      7.56223614	    -10.34207942	     27.03565723	      0.47186123	      3.07029233	     -1.67229634	      0.00000000	    -21.24615330	    -10.88286375	     -5.98200335	     38.20490181	      0.66680133	    -22.21910340	     -9.08407810	      0.00000000
     15.00666667	     -6.98919229	     -8.04482686	      3.25614455	      2.40568396	      1.03695003	      0.96993768	     46.79054685	      7.16939526	    -11.15400030	     25.48402670	      0.44478017	      2.82785184	     -0.39113278	      0.00000000	    -20.85405531	    -10.67111105	     -3.80519147	     42.27548037	      0.73784633	    -21.98828376	    -11.56069459	      0.00000000
     15.01333333	     -6.28889433	     -7.84539322	      3.82979499	      2.40540540	      1.03627345	      0.96890632	     45.68219090	      6.72850560	    -11.93686611	     24.62987589	      0.42987243	      2.61301863	      0.58740622	      0.00000000	    -20.34993694	    -10.34085228	     -1.86702687	     46.52344617	      0.81198732	    -21.75393475	    -13.78541336	      0.00000000
     15.02000000	     -5.51845845	     -7.71517452	      4.24120625	      2.40509989	      1.03525218	      0.96791636	     44.53917531	      6.49527155	    -12.43227919	     24.29184516	      0.42397268	      2.35584105	      0.83329337	      0.00000000	    -19.85847082	    -10.09109327	     -0.49334476	     50.87423535	      0.88792291	    -21.21658465	    -15.32590755	      0.00000000
     15.02666667	     -4.88299866	     -7.45724108	      4.61598030	      2.40477677	      1.03361243	      0.96677801	     43.65116474	      6.02000327	    -13.16625708	     24.70751711	      0.43122752	      2.28386960	      1.33936168	      0.00000000	    -19.15143913	     -9.62134684	      0.84052119	     55.23820935	      0.96408863	    -21.14810818	    -17.17692606	      0.00000000
     15.03333333	     -4.08641320	     -7.34300793	      4.86422196	      2.40455038	      1.03169967	      0.96575034	     42.55274838	      5.82363652	    -13.62345149	     25.42881079	      0.44381647	      2.21830063	      1.22193123	      0.00000000	    -18.59996623	     -9.36242031	      1.65574698	     59.56874767	      1.03967078	    -20.75681206	    -18.34088608	      0.00000000
     15.04000000	     -3.39247785	     -7.16205099	      4.97454768	      2.40439989	      1.02921216	      0.96483708	     41.55691623	      5.59912708	    -13.99878792	     26.56170495	      0.46358921	      2.25492933	      1.10120573	      0.00000000	    -17.91718028	     -9.02508366	      2.20671753	     63.82057536	      1.11387917	    -20.38922564	    -19.47329141	      0.00000000
     15.04666667	     -2.77263638	     -6.96002830	      4.95105123	      2.40432724	      1.02616311	      0.96401380	     40.62172810	      5.41977475	    -14.17650469	     28.03300778	      0.48926828	      2.37163297	      0.98785784	      0.00000000	    -17.14361634	     -8.62396104	      2.55822831	     67.97866305	      1.18645149	    -20.01681300	    -20.46824417	      0.00000000
     15.05333333	     -1.89770965	     -6.92376368	      4.74338079	      2.40445316	      1.02299346	      0.96349743	     39.29904071	      5.60109705	    -14.10827277	     29.53406087	      0.51546660	      2.44455210	      0.58685901	      0.00000000	    -16.69672610	     -8.49211591	      2.41769078	     71.91824361	      1.25521014	    -19.52673121	    -21.28864858	      0.00000000
     15.06000000	     -1.16191796	     -6.89038608	      4.46996805	      2.40458110	      1.01926202	      0.96310323	     38.06956823	      5.83078793	    -13.85621096	     31.17729308	      0.54414642	      2.56915831	      0.12316053	      0.00000000	    -16.05253895	     -8.36277804	      2.21633692	     75.75901828	      1.32224431	    -18.99850212	    -22.00429393	      0.00000000
     15.06666667	     -1.02093909	     -6.61565184	      4.04283542	      2.40444119	      1.01445015	      0.96282209	     37.47122653	      5.98824475	    -12.86310685	     33.00055239	      0.57596829	      2.84639281	     -0.95041238	      0.00000000	    -14.64738277	     -7.89682379	      2.01623400	     79.62763932	      1.38976448	    -18.30450132	    -22.54288263	      0.00000000
     15.07333333	     -0.62919001	     -6.56346365	      3.45781129	      2.40435840	      1.00964251	      0.96291158	     36.51890549	      6.55206472	    -11.74160272	     34.78059414	      0.60703588	      3.13869514	     -2.17038484	      0.00000000	    -13.54097390	     -7.79258444	      1.44097370	     83.26086289	      1.45317620	    -17.54209933	    -23.06002999	      0.00000000
